<svg width="430" height="430" viewBox="0 0 430 430" fill="none" xmlns="http://www.w3.org/2000/svg">
<g clip-path="url(#clip0_2119_4981)">
<path d="M331.509 169.75C327.359 112.09 280.459 65.5301 222.769 61.8101C206.812 60.7491 190.806 62.976 175.744 68.3528C160.682 73.7296 146.885 82.1417 135.207 93.0682C123.528 103.995 114.218 117.203 107.852 131.874C101.486 146.545 98.2009 162.367 98.1992 178.36C98.2502 190.931 100.275 203.417 104.199 215.36C125.439 281.08 199.359 353.52 212.909 366.41C213.48 366.954 214.241 367.251 215.029 367.238C215.816 367.225 216.567 366.902 217.119 366.34C230.889 352.27 309.599 270.13 326.699 212.74C330.898 198.821 332.528 184.253 331.509 169.75ZM214.999 233.33C204.121 233.33 193.488 230.104 184.443 224.061C175.398 218.017 168.349 209.428 164.186 199.378C160.023 189.328 158.934 178.269 161.056 167.6C163.178 156.931 168.416 147.131 176.108 139.439C183.8 131.747 193.6 126.509 204.269 124.387C214.938 122.265 225.997 123.354 236.047 127.517C246.097 131.68 254.687 138.729 260.73 147.774C266.774 156.818 269.999 167.452 269.999 178.33C269.999 185.553 268.577 192.705 265.813 199.378C263.049 206.051 258.997 212.114 253.89 217.221C248.783 222.328 242.72 226.379 236.047 229.143C229.374 231.907 222.222 233.33 214.999 233.33Z" fill="#4BB3FD"/>
<g style="mix-blend-mode:multiply" opacity="0.5">
<path d="M123.471 178.36C123.474 149.539 134.131 121.736 153.394 100.297C172.656 78.8581 199.164 65.2966 227.821 62.2201C226.231 62.0501 224.641 61.9101 223.041 61.8101C207.083 60.7491 191.078 62.976 176.016 68.3528C160.954 73.7296 147.156 82.1417 135.478 93.0682C123.8 103.995 114.489 117.203 108.124 131.874C101.758 146.545 98.4724 162.367 98.4707 178.36C98.5217 190.931 100.546 203.417 104.471 215.36C125.741 281.16 199.841 353.71 213.241 366.46C213.812 367.002 214.574 367.298 215.362 367.283C216.15 367.268 216.9 366.944 217.451 366.38C217.881 365.94 218.391 365.38 218.991 364.77C193.781 339.32 147.301 270.51 129.471 215.36C125.546 203.417 123.522 190.931 123.471 178.36Z" fill="#4BB3FD"/>
</g>
</g>
<defs>
<clipPath id="clip0_2119_4981">
<rect width="430" height="430" fill="white"/>
</clipPath>
</defs>
</svg>
